<svg width="158" height="52" viewBox="0 0 158 52" fill="none" xmlns="http://www.w3.org/2000/svg">
<g clip-path="url(#clip0_2410_5352)">
<path d="M39.1481 43.392C41.974 38.7988 43.6921 32.6868 43.6921 25.9988C43.6921 19.3108 41.9691 13.2111 39.1481 8.60555C41.557 10.4244 43.5621 12.7235 45.0366 15.3573C46.5111 17.991 47.4229 20.9022 47.7143 23.9065H51.9137C51.3734 17.2142 48.265 10.9905 43.2395 6.53829C38.2139 2.08611 31.6608 -0.249272 24.9522 0.0211106C18.2437 0.291493 11.8998 3.14667 7.24883 7.98886C2.59787 12.831 0.000488281 19.2848 0.000488281 25.9988C0.000488281 32.7128 2.59787 39.1665 7.24883 44.0087C11.8998 48.8509 18.2437 51.7061 24.9522 51.9765C31.6608 52.2468 38.2139 49.9115 43.2395 45.4593C48.265 41.0071 51.3734 34.7833 51.9137 28.0911H47.7143C47.4229 31.0954 46.5111 34.0065 45.0366 36.6403C43.5621 39.2741 41.557 41.5731 39.1481 43.392ZM21.3315 23.9065C21.4768 18.9219 22.1365 14.1908 23.2245 10.4074C24.2485 6.8554 25.3758 5.10525 25.9986 4.43079C26.6214 5.10525 27.7488 6.8554 28.7728 10.4074C30.0035 14.7176 30.6977 20.2536 30.6977 25.9988C30.6977 31.744 30.0134 37.28 28.7728 41.5902C27.7488 45.1422 26.6214 46.8923 25.9986 47.5668C25.3758 46.8923 24.2485 45.1422 23.2245 41.5902C22.1365 37.8068 21.4768 33.0757 21.3315 28.0911H26.0085V23.9065H21.3315ZM20.1549 6.41479C18.4614 10.752 17.334 16.9428 17.1445 23.9065H12.5463C13.0386 16.3052 16.0392 9.70833 20.1549 6.41479ZM17.1445 28.0911C17.334 35.0548 18.4614 41.2455 20.1549 45.5828C16.0392 42.2892 13.0386 35.6923 12.5463 28.0911H17.1445ZM31.8398 45.5902C33.7032 40.8222 34.8823 33.8142 34.8823 25.9988C34.8823 18.1834 33.7032 11.1754 31.8398 6.4074C36.3321 9.99879 39.5075 17.5262 39.5075 25.9988C39.5075 34.4714 36.3321 41.9988 31.8398 45.5902ZM4.17708 25.9988C4.17725 22.6266 4.95987 19.3003 6.46336 16.2818C7.96685 13.2633 10.1502 10.6348 12.8417 8.6031C10.0183 13.2111 8.2977 19.3108 8.2977 25.9988C8.2977 32.6868 10.0208 38.7865 12.8417 43.3945C10.1502 41.3628 7.96685 38.7342 6.46336 35.7157C4.95987 32.6972 4.17725 29.371 4.17708 25.9988Z" fill="#DA291C"/>
<path d="M154.272 16.2408H153.608V18.1657H153.248V16.2408H152.581V15.9307H154.272V16.2408Z" fill="black"/>
<path d="M157.039 16.0593V18.1663H156.682V16.5639L156.054 17.7528H155.739L155.109 16.5663V18.1663H154.757V16.0617C154.757 15.9682 154.845 15.9189 154.959 15.9189C155.072 15.9189 155.143 15.9706 155.205 16.0913L155.897 17.4032L156.593 16.0913C156.655 15.9706 156.687 15.9189 156.839 15.9189C156.992 15.9189 157.039 15.9682 157.039 16.0593Z" fill="black"/>
<path d="M61.2852 20.0369C61.2852 17.5065 62.9295 15.9385 65.1646 15.9385C66.5356 15.9385 67.6532 16.5637 68.2563 17.6148L67.0944 18.3926C66.9078 18.0572 66.6342 17.7784 66.3023 17.5856C65.9704 17.3928 65.5927 17.2932 65.2089 17.2972C63.8181 17.2972 62.8852 18.2622 62.8852 19.9828C62.8852 21.7034 63.8944 22.624 65.1424 22.624C65.57 22.6117 65.9898 22.5063 66.3725 22.3149C66.7551 22.1236 67.0914 21.8511 67.3578 21.5163L68.3424 22.4714C67.9393 22.9582 67.4338 23.3501 66.862 23.6194C66.2902 23.8887 65.6661 24.0288 65.0341 24.0296C62.9516 24.0296 61.2852 22.6339 61.2852 20.0369Z" fill="black"/>
<path d="M71.6232 17.4077V19.2587H74.8675V20.583H71.6232V22.567H75.1309V23.9036H70.0527V16.716C70.053 16.6297 70.0707 16.5444 70.1049 16.4651C70.139 16.3859 70.1889 16.3144 70.2515 16.2551C70.3141 16.1957 70.3881 16.1496 70.469 16.1197C70.55 16.0898 70.6361 16.0766 70.7223 16.0809H75.2367V17.4077H71.6232Z" fill="black"/>
<path d="M76.6079 20.0271C76.6079 17.5656 78.1636 15.9385 80.4971 15.9385C82.8307 15.9385 84.3667 17.5606 84.3667 20.0049C84.3667 22.4492 82.811 24.0296 80.4848 24.0296C78.1587 24.0296 76.6079 22.4369 76.6079 20.0271ZM82.7618 19.9926C82.7618 18.2696 81.8731 17.3194 80.4922 17.3194C79.1113 17.3194 78.203 18.2622 78.203 19.9926C78.203 21.7231 79.0891 22.6462 80.4922 22.6462C81.8953 22.6462 82.7667 21.7034 82.7667 19.9926H82.7618Z" fill="black"/>
<path d="M88.8047 20.0369C88.8047 17.5065 90.449 15.9385 92.6841 15.9385C94.0551 15.9385 95.1727 16.5637 95.7757 17.6148L94.6139 18.3926C94.4271 18.0574 94.1534 17.7787 93.8216 17.5859C93.4898 17.3932 93.1121 17.2934 92.7284 17.2972C91.3376 17.2972 90.4047 18.2622 90.4047 19.9828C90.4047 21.7034 91.4139 22.624 92.6619 22.624C93.0895 22.6117 93.5093 22.5063 93.892 22.3149C94.2746 22.1236 94.6109 21.8511 94.8773 21.5163L95.8619 22.4714C95.4584 22.9596 94.9519 23.3525 94.3786 23.6219C93.8054 23.8913 93.1796 24.0305 92.5462 24.0295C90.4711 24.0295 88.8047 22.6339 88.8047 20.0369Z" fill="black"/>
<path d="M96.9771 20.0271C96.9771 17.5656 98.5352 15.9385 100.869 15.9385C103.202 15.9385 104.738 17.5606 104.738 20.0049C104.738 22.4492 103.185 24.0296 100.849 24.0296C98.5131 24.0296 96.9771 22.4369 96.9771 20.0271ZM103.131 19.9926C103.131 18.2696 102.242 17.3194 100.861 17.3194C99.4804 17.3194 98.5697 18.2622 98.5697 19.9926C98.5697 21.7231 99.4583 22.6462 100.861 22.6462C102.264 22.6462 103.131 21.7034 103.131 19.9926Z" fill="black"/>
<path d="M110.658 21.967H107.808L107.151 23.9066H105.516L108.17 16.6623C108.335 16.2119 108.696 16.0371 109.233 16.0371C109.77 16.0371 110.141 16.2119 110.306 16.6722L112.96 23.9066H111.325L110.658 21.967ZM110.21 20.6402L109.226 17.7356L108.241 20.6402H110.21Z" fill="black"/>
<path d="M113.728 20.0369C113.728 17.5065 115.372 15.9385 117.607 15.9385C118.976 15.9385 120.096 16.5637 120.697 17.6148L119.535 18.3926C119.349 18.0574 119.075 17.7787 118.744 17.5859C118.413 17.3931 118.035 17.2933 117.652 17.2972C116.259 17.2972 115.328 18.2622 115.328 19.9828C115.328 21.7034 116.335 22.624 117.585 22.624C118.013 22.6108 118.432 22.5048 118.815 22.3136C119.197 22.1223 119.534 21.8503 119.801 21.5163L120.785 22.4714C120.382 22.9587 119.876 23.3511 119.304 23.6204C118.732 23.8898 118.107 24.0295 117.475 24.0296C115.392 24.0296 113.728 22.6339 113.728 20.0369Z" fill="black"/>
<path d="M122.518 16.0811H124.096V19.3032H127.382V16.0811H128.962V23.9063H127.382V20.694H124.096V23.9063H122.518V16.0811Z" fill="black"/>
<path d="M131.208 16.0811H132.785V23.9063H131.208V16.0811Z" fill="black"/>
<path d="M141.718 16.0814V23.4783C141.718 23.786 141.378 23.983 140.93 23.983C140.413 23.983 140.192 23.8525 139.975 23.5448L136.512 18.6463V23.9066H135.055V16.6623C135.055 16.2242 135.426 16.0371 135.887 16.0371C136.524 16.0371 136.677 16.234 137.007 16.6943L140.283 21.2753V16.0814H141.718Z" fill="black"/>
<path d="M143.614 20.0492C143.614 17.5286 145.214 15.9385 147.614 15.9385C149.248 15.9385 150.376 16.7163 150.858 17.7699L149.598 18.4369C149.204 17.6369 148.47 17.2874 147.594 17.2874C146.169 17.2874 145.214 18.3065 145.214 19.9951C145.214 21.6837 146.07 22.6585 147.473 22.6585C148.734 22.6585 149.632 21.8585 149.654 20.7828H147.67V19.552H151.21V20.4185C151.21 22.5526 149.654 24.0296 147.461 24.0296C145.073 24.0296 143.614 22.4812 143.614 20.0492Z" fill="black"/>
<path d="M68.1772 29.1986C68.1703 29.1184 68.1808 29.0377 68.208 28.9619C68.2352 28.8861 68.2785 28.8171 68.3348 28.7596C68.3911 28.7021 68.4592 28.6575 68.5344 28.6287C68.6096 28.6 68.6901 28.5878 68.7705 28.5931C68.8514 28.5876 68.9326 28.5996 69.0085 28.6281C69.0844 28.6566 69.1534 28.701 69.2108 28.7583C69.2681 28.8157 69.3125 28.8847 69.341 28.9606C69.3696 29.0365 69.3815 29.1177 69.376 29.1986C69.3821 29.2803 69.3707 29.3623 69.3426 29.4391C69.3145 29.516 69.2703 29.586 69.213 29.6445C69.1557 29.7029 69.0866 29.7485 69.0103 29.7782C68.934 29.8078 68.8522 29.8209 68.7705 29.8165C68.6893 29.8207 68.6082 29.8074 68.5327 29.7775C68.4571 29.7476 68.3889 29.7018 68.3326 29.6432C68.2763 29.5846 68.2333 29.5145 68.2065 29.4378C68.1797 29.3611 68.1697 29.2795 68.1772 29.1986ZM68.3889 30.9094H69.152V37.4866H68.3889V30.9094Z" fill="black"/>
<path d="M77.0387 32.7883V37.4849H76.2756V32.9335C76.2756 31.8677 75.8276 31.4344 74.9464 31.4344C74.1439 31.4344 73.1593 31.8677 72.2387 32.6652V37.48H71.4756V30.9077H72.214V31.9858C73.1224 31.1834 74.1341 30.7354 75.0153 30.7354C76.3494 30.7354 77.0387 31.4861 77.0387 32.7883Z" fill="black"/>
<path d="M83.3476 37.0365C82.8415 37.4122 82.2278 37.615 81.5975 37.615C80.1895 37.615 79.611 36.6821 79.611 35.3528V31.5374H78.5156V30.9073H79.6061V28.8691H80.3569V30.9073H83.0006V31.5374H80.3618V35.3799C80.3618 36.458 80.9255 36.8913 81.6762 36.8913C82.1619 36.8788 82.6329 36.7229 83.0301 36.4433L83.3476 37.0365Z" fill="black"/>
<path d="M89.6343 36.0375L90.0552 36.5889C89.3211 37.2568 88.3645 37.6271 87.3721 37.6277C85.8066 37.6277 84.3198 36.5101 84.3198 34.2997C84.3198 32.355 85.4767 30.7354 87.6478 30.7354C88.9229 30.7354 90.161 31.459 90.161 32.9064C90.161 33.9452 89.4226 34.5778 88.3444 34.5778H85.0829C85.2011 35.9981 86.0823 36.9458 87.3967 36.9458C88.2316 36.9417 89.0328 36.6165 89.6343 36.0375ZM85.0829 33.96H88.2657C88.9229 33.96 89.4374 33.603 89.4374 32.8547C89.4374 31.9735 88.6595 31.3778 87.5961 31.3778C86.2004 31.368 85.1887 32.3403 85.0829 33.96Z" fill="black"/>
<path d="M95.7636 30.8797L95.6307 31.5518C95.3911 31.4804 95.1422 31.4447 94.8922 31.4459C94.4726 31.4596 94.0616 31.5684 93.6902 31.7641C93.3188 31.9598 92.9967 32.2373 92.7482 32.5757V37.484H92.0098V30.9068H92.7482V31.8398C93.0031 31.4975 93.3343 31.2194 93.7154 31.0276C94.0966 30.8357 94.5172 30.7354 94.9439 30.7345C95.2238 30.7313 95.5018 30.7806 95.7636 30.8797Z" fill="black"/>
<path d="M102.722 32.7883V37.4849H101.959V32.9335C101.959 31.8677 101.511 31.4344 100.63 31.4344C99.8275 31.4344 98.8404 31.8677 97.9223 32.6652V37.48H97.1592V30.9077H97.8976V31.9858C98.8035 31.1834 99.8177 30.7354 100.699 30.7354C102.038 30.7354 102.722 31.4861 102.722 32.7883Z" fill="black"/>
<path d="M109.915 33.418V37.4844H109.206V36.1552C108.985 36.6149 108.634 36.9997 108.196 37.2622C107.759 37.5246 107.254 37.6533 106.744 37.6321C105.415 37.6321 104.495 36.8149 104.495 35.6186C104.495 34.0678 105.863 33.4894 107.68 33.4894C108.195 33.4957 108.709 33.5351 109.218 33.6075V33.3614C109.218 32.0469 108.522 31.4143 107.284 31.4143C106.514 31.4163 105.772 31.697 105.194 32.2044L104.76 31.6604C105.456 31.0443 106.357 30.7107 107.286 30.7251C108.916 30.7349 109.915 31.6432 109.915 33.418ZM109.206 34.2746V34.181C108.716 34.116 108.223 34.0815 107.729 34.0777C106.1 34.0777 105.243 34.602 105.243 35.6284C105.243 36.458 105.888 37.0241 106.836 37.0241C108.364 37.0241 109.206 35.8647 109.206 34.2746Z" fill="black"/>
<path d="M116.202 37.0365C115.697 37.4118 115.084 37.6146 114.454 37.615C113.046 37.615 112.468 36.6821 112.468 35.3528V31.5374H111.375V30.9073H112.468V28.8691H113.206V30.9073H115.85V31.5374H113.224V35.3799C113.224 36.458 113.79 36.8913 114.541 36.8913C115.026 36.8788 115.497 36.7229 115.894 36.4433L116.202 37.0365Z" fill="black"/>
<path d="M117.408 29.1988C117.401 29.1187 117.411 29.038 117.438 28.9623C117.465 28.8865 117.508 28.8174 117.564 28.7599C117.62 28.7023 117.688 28.6576 117.763 28.6289C117.838 28.6001 117.919 28.588 117.999 28.5933C118.08 28.5874 118.161 28.5991 118.237 28.6274C118.313 28.6558 118.382 28.7002 118.44 28.7576C118.497 28.8151 118.542 28.8842 118.57 28.9603C118.599 29.0364 118.61 29.1178 118.604 29.1988C118.61 29.2804 118.599 29.3624 118.571 29.4393C118.543 29.5162 118.499 29.5862 118.441 29.6447C118.384 29.7031 118.315 29.7487 118.239 29.7784C118.162 29.808 118.08 29.8211 117.999 29.8167C117.918 29.8209 117.837 29.8077 117.761 29.7778C117.686 29.7478 117.618 29.702 117.562 29.6433C117.505 29.5846 117.463 29.5146 117.436 29.4378C117.41 29.3611 117.4 29.2796 117.408 29.1988ZM117.617 30.9096H118.38V37.4868H117.617V30.9096Z" fill="black"/>
<path d="M120.293 34.1963C120.293 32.0917 121.568 30.7354 123.412 30.7354C125.256 30.7354 126.516 32.1163 126.516 34.1963C126.516 36.2763 125.285 37.6547 123.397 37.6547C121.509 37.6547 120.281 36.2738 120.293 34.1963ZM125.753 34.1963C125.753 32.4584 124.884 31.4197 123.412 31.4197C121.94 31.4197 121.056 32.4338 121.056 34.1963C121.056 35.9587 121.925 36.9704 123.397 36.9704C124.869 36.9704 125.753 35.944 125.753 34.1963Z" fill="black"/>
<path d="M133.96 32.7883V37.4849H133.196V32.9335C133.196 31.8677 132.748 31.4344 131.867 31.4344C131.065 31.4344 130.08 31.8677 129.16 32.6652V37.48H128.396V30.9077H129.135V31.9858C130.043 31.1834 131.055 30.7354 131.936 30.7354C133.275 30.7354 133.96 31.4861 133.96 32.7883Z" fill="black"/>
<path d="M141.155 33.4179V37.4844H140.443V36.1552C140.223 36.6155 139.872 37.0008 139.434 37.2634C138.997 37.526 138.492 37.6542 137.982 37.6321C136.653 37.6321 135.732 36.8148 135.732 35.6185C135.732 34.0678 137.101 33.4893 138.915 33.4893C139.43 33.4956 139.943 33.5351 140.453 33.6075V33.3613C140.453 32.0469 139.757 31.4143 138.521 31.4143C137.751 31.4161 137.008 31.6968 136.429 32.2044L135.998 31.6604C136.694 31.0447 137.594 30.7111 138.523 30.725C140.155 30.7349 141.155 31.6432 141.155 33.4179ZM140.443 34.2746V34.181C139.954 34.1159 139.46 34.0814 138.966 34.0776C137.334 34.0776 136.48 34.6019 136.48 35.6284C136.48 36.4579 137.125 37.0241 138.07 37.0241C139.601 37.0241 140.443 35.8647 140.443 34.2746Z" fill="black"/>
<path d="M143.35 28.0908H144.089V37.484H143.35V28.0908Z" fill="black"/>
</g>
<defs>
<clipPath id="clip0_2410_5352">
<rect width="157.034" height="52" fill="white"/>
</clipPath>
</defs>
</svg>
